<?xml version="1.0" encoding="utf-8"?>
<!-- Generator: Adobe Illustrator 23.1.0, SVG Export Plug-In . SVG Version: 6.00 Build 0)  -->
<svg version="1.1" id="Слой_1" xmlns="http://www.w3.org/2000/svg" xmlns:xlink="http://www.w3.org/1999/xlink" x="0px" y="0px"
	 viewBox="0 0 300 300" style="enable-background:new 0 0 300 300;" xml:space="preserve">
<style type="text/css">
	.st0{fill:#FFFFFF;}
</style>
<path class="st0" d="M150,0C67.2,0,0,67.2,0,150s67.2,150,150,150s150-67.2,150-150S232.8,0,150,0z M150,52.7l88.8,55.3H61.2
	L150,52.7z M239.9,196.4c0,8.9-7.2,16.1-16.1,16.1H76.2c-8.9,0-16.1-7.2-16.1-16.1v-84.9c0-0.9,0.1-1.9,0.3-2.7l84.8,52.9
	c0.1,0.1,0.2,0.1,0.3,0.2c0.1,0.1,0.2,0.1,0.3,0.2c0.6,0.3,1.2,0.6,1.8,0.7h0.2c0.7,0.2,1.4,0.3,2.1,0.3c0.7,0,1.4-0.1,2.1-0.3h0.2
	c0.6-0.2,1.2-0.4,1.8-0.7c0.1-0.1,0.2-0.1,0.3-0.2c0.1-0.1,0.2-0.1,0.3-0.2l84.8-52.9c0.2,0.9,0.3,1.8,0.3,2.7L239.9,196.4
	L239.9,196.4z"/>
</svg>
