<svg version="1.1" id="Слой_1" xmlns="http://www.w3.org/2000/svg" x="0" y="0" viewBox="0 0 595.28 841.89" xml:space="preserve"><style>.st0{stroke:#000;stroke-miterlimit:10}</style><switch><g><path class="st0" d="M189.26 216.12h16.58v241.37h-16.58zM254.68 216.12h16.58v200.32h-16.58zM205.84 198.88h48.84v17.24h-48.84z"/><path class="st0" d="M271.01 293.87h40.51v15.8h-40.51z"/><path class="st0" d="M309.03 308.94h51.18v16.52h-51.18zM363.58 324.74h41.52v17.24h-41.52z"/><path class="st0" d="M309.13 323.25h16.58v81.34h-16.58zM388.52 516.31h16.58v81.34h-16.58zM360.21 325.47h16.58v114.91h-16.58zM405.1 341.34h16.58v17.24H405.1zM119 423.19h16.58v17.24H119zM421.68 359.28h16.58v118.74h-16.58zM405.1 478.72h16.58v37.59H405.1zM185.32 553.2h16.58v44.46h-16.58zM135.58 440.44h16.58v37.59h-16.58z"/><path class="st0" d="M152.16 478.02h16.58v37.59h-16.58zM168.74 515.61h16.58v37.59h-16.58zM159.35 381.1h29.91v17.24h-29.91z"/><path class="st0" d="M103.03 363.89h56.42v17.24h-56.42z"/><path class="st0" d="M102.42 379.53H119v43.67h-16.58zM202.58 580.34h185.26v17.24H202.58z"/></g></switch></svg>