<svg version="1.1" id="Слой_1" xmlns="http://www.w3.org/2000/svg" x="0" y="0" viewBox="0 0 595.28 841.89" xml:space="preserve"><style>.st0{stroke:#000;stroke-miterlimit:10}</style><switch><g><path class="st0" d="M189.26 216.12h16.58v241.37h-16.58zm65.42 0h16.58v200.32h-16.58zm-48.84-17.24h48.84v17.24h-48.84z"/><path class="st0" d="M271.01 293.87h40.51v15.8h-40.51z"/><path class="st0" d="M309.03 308.94h51.18v16.52h-51.18zm54.55 15.8h41.52v17.24h-41.52z"/><path class="st0" d="M309.13 323.25h16.58v81.34h-16.58zm79.39 193.06h16.58v81.34h-16.58zm-28.31-190.84h16.58v114.91h-16.58zm44.89 15.87h16.58v17.24H405.1zM119 423.19h16.58v17.24H119zm302.68-63.91h16.58v118.74h-16.58zM405.1 478.72h16.58v37.59H405.1zM185.32 553.2h16.58v44.46h-16.58zm-49.74-112.76h16.58v37.59h-16.58zm16.58 37.58h16.58v37.59h-16.58zm16.58 37.59h16.58v37.59h-16.58zm-9.39-134.51h29.91v17.24h-29.91z"/><path class="st0" d="M103.03 363.89h56.42v17.24h-56.42z"/><path class="st0" d="M102.42 379.53H119v43.67h-16.58zm100.16 200.81h185.26v17.24H202.58z"/></g></switch></svg>