<svg version="1.1" id="Слой_1" xmlns="http://www.w3.org/2000/svg" x="0" y="0" viewBox="0 0 595.3 841.9" xml:space="preserve"><style>.st0{fill:#8a95f5;stroke:#000;stroke-miterlimit:10}</style><path class="st0" d="M189.3 216.1h16.6v241.4h-16.6V216.1zm65.4 0h16.6v200.3h-16.6V216.1zm-48.9-17.2h48.8v17.2h-48.8v-17.2z"/><path class="st0" d="M271 293.9h40.5v15.8H271v-15.8z"/><path class="st0" d="M309 308.9h51.2v16.5H309v-16.5zm54.6 15.8h41.5V342h-41.5v-17.3z"/><path class="st0" d="M309.1 323.3h16.6v81.3h-16.6v-81.3zm79.4 193h16.6v81.3h-16.6v-81.3zm-28.3-190.8h16.6v114.9h-16.6V325.5zm44.9 15.8h16.6v17.2h-16.6v-17.2zM119 423.2h16.6v17.2H119v-17.2zm302.7-63.9h16.6V478h-16.6V359.3zm-16.6 119.4h16.6v37.6h-16.6v-37.6zm-219.8 74.5h16.6v44.5h-16.6v-44.5zm-49.7-112.8h16.6V478h-16.6v-37.6zm16.6 37.6h16.6v37.6h-16.6V478zm16.5 37.6h16.6v37.6h-16.6v-37.6zm-9.3-134.5h29.9v17.2h-29.9v-17.2zM103 363.9h56.4v17.2H103v-17.2z"/><path class="st0" d="M102.4 379.5H119v43.7h-16.6v-43.7zm100.2 200.8h185.3v17.2H202.6v-17.2z"/></svg>